<svg width="143" height="143" viewBox="0 0 143 143" fill="none" xmlns="http://www.w3.org/2000/svg">
<circle cx="71.4976" cy="71.5" r="57.739" stroke="#222027" stroke-width="2.25151"/>
<path d="M42.5491 74.4042C45.1636 74.4042 45.8172 75.6463 48.4316 75.6463C51.0461 75.6463 51.6997 74.4042 54.3142 74.4042C57.5822 74.4042 61.5039 77.5095 61.5039 83.7199C61.5039 89.9304 56.9286 95.5198 54.3142 95.5198C51.6997 95.5198 50.3925 94.2777 48.4316 94.2777C46.4708 94.2777 45.1636 95.5198 42.5491 95.5198C39.9347 95.5198 35.3594 89.9304 35.3594 83.7199C35.3594 77.5095 39.2811 74.4042 42.5491 74.4042Z" stroke="#222027" stroke-width="2"/>
<path d="M48.4506 72.4802C50.4002 72.9431 52.6681 72.3961 54.3142 70.885C55.9602 69.3738 56.5513 67.2961 56.0402 65.5127C54.0907 65.0498 51.8227 65.5968 50.1767 67.1079C48.5306 68.6191 47.9395 70.6968 48.4506 72.4802Z" stroke="#222027" stroke-width="2"/>
<path d="M92.6963 105.78H73.1939C70.1571 105.78 67.6953 103.318 67.6953 100.281V52.4506C67.6953 50.9345 68.3213 49.4857 69.4253 48.4466L70.8721 47.0849C71.579 46.4196 71.9798 45.492 71.9798 44.5213V43.1431C71.9798 41.96 71.0207 41.0009 69.8375 41.0009H69.5856C68.5416 41.0009 67.6953 40.1545 67.6953 39.1105C67.6953 38.0665 68.5416 37.2202 69.5856 37.2202H96.3046C97.3486 37.2202 98.195 38.0665 98.195 39.1105C98.195 40.1545 97.3486 41.0009 96.3046 41.0009H95.9258C94.6726 41.0009 93.6567 42.0168 93.6567 43.27V44.2306C93.6567 45.356 94.2424 46.4002 95.2028 46.9868L95.9258 47.4286C97.3353 48.2896 98.195 49.8221 98.195 51.4738V100.281C98.195 103.318 95.7331 105.78 92.6963 105.78Z" stroke="#222027" stroke-width="2"/>
</svg>
