<svg width="143" height="143" viewBox="0 0 143 143" fill="none" xmlns="http://www.w3.org/2000/svg">
<circle cx="71.4976" cy="71.5" r="57.739" stroke="#222027" stroke-width="2.25151"/>
<path d="M65.0491 62.4806C67.5726 62.4806 68.2035 63.6795 70.7271 63.6795C73.2506 63.6795 73.8815 62.4806 76.405 62.4806C79.5595 62.4806 83.3448 65.4779 83.3448 71.4724C83.3448 77.4669 78.9286 82.8619 76.405 82.8619C73.8815 82.8619 72.6197 81.663 70.7271 81.663C68.8344 81.663 67.5726 82.8619 65.0491 82.8619C62.5256 82.8619 58.1094 77.4669 58.1094 71.4724C58.1094 65.4779 61.8947 62.4806 65.0491 62.4806Z" stroke="#222027" stroke-width="2"/>
<path d="M70.7454 60.6235C72.6271 61.0703 74.8162 60.5423 76.405 59.0837C77.9939 57.6251 78.5644 55.6197 78.0711 53.8983C76.1893 53.4515 74.0002 53.9794 72.4114 55.438C70.8226 56.8966 70.252 58.9021 70.7454 60.6235Z" stroke="#222027" stroke-width="2"/>
<path d="M87.6481 87.6599C85.7496 86.363 85.3282 82.4723 86.6643 79.23C88.8604 73.9008 99.1396 69.5936 108.417 67.6194C108.53 67.5954 108.62 67.7106 108.563 67.8085C105.92 72.3968 102.743 80.4819 98.0208 85.0661C93.211 89.7349 89.5465 88.9568 87.6481 87.6599ZM87.6481 87.6599C87.6481 87.6599 92.6766 79.23 101.361 73.394M87.6481 87.6599C85.9951 90.2536 85.3282 91.5505 83.9922 94.7928" stroke="#222027" stroke-width="2"/>
<path d="M47.9925 68.2512C49.891 66.9543 50.3124 63.0636 48.9763 59.8214C46.7802 54.4921 36.501 50.1849 27.2236 48.2107C27.1107 48.1867 27.0211 48.3019 27.0774 48.3998C29.7205 52.9881 32.8972 61.0732 37.6198 65.6574C42.4296 70.3262 46.0941 69.5481 47.9925 68.2512ZM47.9925 68.2512C47.9925 68.2512 42.964 59.8214 34.2796 53.9853M47.9925 68.2512C49.6456 70.845 50.3124 72.1418 51.6484 75.3841" stroke="#222027" stroke-width="2"/>
</svg>
