<svg width="143" height="143" viewBox="0 0 143 143" fill="none" xmlns="http://www.w3.org/2000/svg">
<circle cx="71.4976" cy="71.5" r="57.739" stroke="#222027" stroke-width="2.25151"/>
<path d="M63.923 59.0113C64.4508 59.4281 64.8721 59.8948 65.2021 60.3333C62.1575 60.3128 59.6932 61.4175 57.9162 62.6157C56.8382 63.3426 56.0052 64.1084 55.4348 64.69C55.293 64.8346 55.1673 64.968 55.0584 65.0863C52.6697 64.0079 50.3853 64.0723 48.6649 64.4087C47.7211 64.5933 46.9393 64.8608 46.3931 65.0699C46.3556 65.0843 46.3186 65.0986 46.2825 65.1127C44.8781 63.3643 42.6347 62.6559 40.5474 62.4276C38.7861 62.2349 36.9859 62.3643 35.5425 62.5992C35.8147 60.902 36.4418 59.8291 37.1799 59.1417C38.1047 58.2805 39.3422 57.895 40.688 57.8038C42.0338 57.7127 43.4017 57.9232 44.4726 58.1687C45.0032 58.2904 45.4509 58.4183 45.7755 58.5166C45.8977 58.5536 45.9995 58.5855 46.0864 58.6127C46.1166 58.6221 46.1449 58.631 46.1717 58.6393C46.176 58.6406 46.1803 58.642 46.1846 58.6433C48.074 60.0505 50.4211 60.0054 52.1829 59.6894C53.1119 59.5228 53.9386 59.2705 54.5489 59.0599C54.8499 58.9561 55.1015 58.8613 55.2828 58.7929L55.2911 58.7898C55.3852 58.7543 55.4508 58.7297 55.4987 58.7126C55.5018 58.7115 55.5047 58.7105 55.5075 58.7095L55.5646 58.7L55.6704 58.6561C57.8133 57.7669 59.5042 57.5761 60.8242 57.7335C62.1401 57.8904 63.1494 58.4004 63.923 59.0113ZM55.5397 58.6988C55.5396 58.6988 55.5382 58.6992 55.5355 58.7C55.5384 58.6991 55.5397 58.6987 55.5397 58.6988Z" stroke="#222027" stroke-width="2"/>
<path d="M62.6231 89.3714C62.9074 89.4184 63.1418 89.4501 63.3116 89.4678L62.6179 89.4755C62.6179 89.4397 62.6197 89.405 62.6231 89.3714ZM59.1762 89.5635C60.227 89.8989 61.2269 90.1304 62.0014 90.2766C61.6879 90.5228 61.2705 90.7789 60.76 91.0358C59.4345 91.7028 57.6921 92.2722 56.1277 92.6828C55.0358 92.9694 53.864 92.9296 52.7156 92.63C51.0311 92.1906 49.2624 92.2119 47.59 92.6782L47.4523 92.7165C47.4522 92.7165 47.4522 92.7166 47.4521 92.7166C46.5322 92.9726 45.6221 93.0277 44.7822 92.8128C42.3789 92.1978 40.8205 91.1426 39.8818 90.2004C41.6805 90.1186 43.2308 89.3111 44.405 88.442C45.2444 87.8207 45.9277 87.1436 46.4211 86.6137C46.483 86.5472 46.5422 86.4828 46.5984 86.4209C47.364 87.0957 48.1651 87.5027 48.9776 87.6879C50.065 87.9356 51.0732 87.7637 51.9055 87.4573C52.6814 87.1717 53.3323 86.7595 53.8016 86.4179C54.3412 87.0731 55.029 87.6115 55.748 88.0526C56.8189 88.7095 58.0432 89.202 59.1762 89.5635Z" stroke="#222027" stroke-width="2"/>
<path d="M37.2109 62.687C41.2525 65.6527 48.4382 76.7695 40.3815 89.988" stroke="#222027" stroke-width="2"/>
<path d="M64.5122 60.4736C60.5689 63.8304 55.5043 75.8139 61.9958 89.8147" stroke="#222027" stroke-width="2"/>
<ellipse cx="48.577" cy="75.1623" rx="0.569194" ry="1.50991" fill="#222027"/>
<ellipse cx="52.8192" cy="75.1623" rx="0.569194" ry="1.50991" fill="#222027"/>
<path d="M50.4072 54.9942C50.3705 52.9017 51.4382 48.7395 56.0024 48.8311C56.1154 48.8314 57.026 54.9942 50.4072 54.9942Z" stroke="#222027" stroke-width="2"/>
<path d="M107.688 91.0109C107.271 91.5387 106.804 91.96 106.366 92.29C106.386 89.2454 105.282 86.7811 104.083 85.0041C103.357 83.9261 102.591 83.093 102.009 82.5227C101.865 82.3809 101.731 82.2552 101.613 82.1463C102.691 79.7576 102.627 77.4732 102.29 75.7528C102.106 74.809 101.838 74.0272 101.629 73.481C101.615 73.4435 101.601 73.4065 101.587 73.3704C103.335 71.966 104.043 69.7225 104.272 67.6353C104.464 65.874 104.335 64.0737 104.1 62.6304C105.797 62.9025 106.87 63.5297 107.558 64.2678C108.419 65.1925 108.804 66.4301 108.895 67.7759C108.986 69.1217 108.776 70.4896 108.53 71.5605C108.409 72.0911 108.281 72.5388 108.183 72.8634C108.146 72.9855 108.114 73.0874 108.087 73.1743C108.077 73.2044 108.068 73.2328 108.06 73.2596C108.059 73.2639 108.057 73.2682 108.056 73.2725C106.649 75.1619 106.694 77.509 107.01 79.2708C107.176 80.1998 107.429 81.0265 107.639 81.6368C107.743 81.9378 107.838 82.1894 107.906 82.3707L107.909 82.379C107.945 82.4731 107.97 82.5387 107.987 82.5866C107.988 82.5897 107.989 82.5926 107.99 82.5954L107.999 82.6525L108.043 82.7583C108.932 84.9012 109.123 86.5921 108.966 87.9121C108.809 89.228 108.299 90.2373 107.688 91.0109ZM108 82.6275C108 82.6275 108 82.6261 107.999 82.6234C108 82.6263 108.001 82.6276 108 82.6275Z" stroke="#222027" stroke-width="2"/>
<path d="M77.3146 89.7135C77.2676 89.9976 77.236 90.2321 77.2183 90.4018L77.2106 89.7082C77.2464 89.7082 77.2811 89.7101 77.3146 89.7135ZM77.1225 86.2665C76.7871 87.3174 76.5557 88.3173 76.4094 89.0917C76.1632 88.7782 75.9072 88.3608 75.6503 87.8503C74.9833 86.5248 74.4139 84.7824 74.0032 83.218C73.7166 82.1261 73.7564 80.9543 74.056 79.8059C74.4954 78.1214 74.4742 76.3527 74.0079 74.6803L73.9695 74.5426C73.9695 74.5426 73.9695 74.5425 73.9695 74.5424C73.7134 73.6225 73.6583 72.7124 73.8732 71.8726C74.4882 69.4693 75.5434 67.9109 76.4857 66.9722C76.5674 68.7708 77.3749 70.3211 78.244 71.4953C78.8653 72.3347 79.5424 73.018 80.0724 73.5115C80.1388 73.5733 80.2033 73.6325 80.2652 73.6888C79.5903 74.4543 79.1833 75.2554 78.9982 76.068C78.7504 77.1553 78.9223 78.1635 79.2287 78.9959C79.5143 79.7718 79.9266 80.4226 80.2681 80.8919C79.6129 81.4315 79.0745 82.1193 78.6335 82.8383C77.9766 83.9092 77.4841 85.1336 77.1225 86.2665Z" stroke="#222027" stroke-width="2"/>
<path d="M104.039 64.9087C101.073 68.9503 90.0082 75.974 76.7897 67.9173" stroke="#222027" stroke-width="2"/>
<path d="M106.289 91.4095C102.932 87.4661 90.6783 82.3829 76.6776 88.8744" stroke="#222027" stroke-width="2"/>
<ellipse cx="91.5292" cy="75.6561" rx="0.569194" ry="1.50991" transform="rotate(90 91.5292 75.6561)" fill="#222027"/>
<ellipse cx="91.5292" cy="79.9085" rx="0.569194" ry="1.50991" transform="rotate(90 91.5292 79.9085)" fill="#222027"/>
<path d="M111.695 77.5038C113.787 77.4671 117.949 78.5348 117.858 83.0991C117.858 83.2121 111.695 84.1227 111.695 77.5038Z" stroke="#222027" stroke-width="2"/>
</svg>
