<svg width="143" height="143" viewBox="0 0 143 143" fill="none" xmlns="http://www.w3.org/2000/svg">
<circle cx="71.4976" cy="71.5" r="57.739" stroke="#A74127" stroke-width="2.25151"/>
<path d="M71.192 90.333L70.1257 95.7291C69.1181 100.828 73.02 105.576 78.2171 105.576H101.034C106.677 105.576 110.653 100.037 108.848 94.69L107.027 89.294C105.895 85.9413 102.751 83.6841 99.212 83.6841H79.2835C75.3448 83.6841 71.9556 86.469 71.192 90.333Z" stroke="#A74127" stroke-width="1.64959"/>
<path d="M71.9609 87.4481L84.1659 94.6092C87.0003 96.2722 90.5514 96.0939 93.2051 94.1555L104.869 85.6353" stroke="#A74127" stroke-width="1.64959"/>
<circle cx="89.1513" cy="96.6161" r="1.98723" fill="#A74127"/>
<path d="M81.2812 83.5057C83.8842 80.8098 89.8102 76.7023 98.3377 83.506" stroke="#A74127" stroke-width="1.64959"/>
<rect x="31.3014" y="44.1207" width="51.452" height="32.8071" rx="8.7978" stroke="#A74127" stroke-width="1.64959"/>
<path d="M31.4375 63.4404H83.0395" stroke="#A74127" stroke-width="1.64959"/>
<path d="M31.4375 68.439H83.0395" stroke="#A74127" stroke-width="1.64959"/>
<path d="M32.7344 73.3472L80.8516 73.5284" stroke="#A74127" stroke-width="1.64959"/>
<path d="M43.4688 43.7545C48.081 38.9776 59.6281 32.2899 68.9183 43.7545" stroke="#A74127" stroke-width="1.64959"/>
</svg>
