<svg width="143" height="143" viewBox="0 0 143 143" fill="none" xmlns="http://www.w3.org/2000/svg">
<circle cx="71.4976" cy="71.5" r="57.739" stroke="#A74127" stroke-width="2.25151"/>
<path d="M41.1116 52.8746C43.6351 52.8746 44.266 54.0735 46.7896 54.0735C49.3131 54.0735 49.944 52.8746 52.4675 52.8746C55.622 52.8746 59.4073 55.8719 59.4073 61.8664C59.4073 67.8609 54.9911 73.2559 52.4675 73.2559C49.944 73.2559 48.6822 72.057 46.7896 72.057C44.8969 72.057 43.6351 73.2559 41.1116 73.2559C38.5881 73.2559 34.1719 67.8609 34.1719 61.8664C34.1719 55.8719 37.9572 52.8746 41.1116 52.8746Z" stroke="#A74127" stroke-width="2"/>
<path d="M46.8079 51.0175C48.6896 51.4643 50.8787 50.9364 52.4675 49.4778C54.0564 48.0192 54.6269 46.0137 54.1336 44.2923C52.2518 43.8455 50.0627 44.3735 48.4739 45.8321C46.8851 47.2907 46.3145 49.2961 46.8079 51.0175Z" stroke="#A74127" stroke-width="2"/>
<path d="M53.9519 98.8626H103.644H105.102C109.657 98.8626 113.35 95.1698 113.35 90.6146V83.146C113.35 79.0612 110.039 75.7499 105.954 75.7499C101.869 75.7499 98.5579 72.4385 98.5579 68.3538V65.9696C98.5579 61.4144 94.8652 57.7217 90.31 57.7217H80.2989C77.363 57.7217 74.983 60.1017 74.983 63.0376C74.983 65.9735 72.6029 68.3535 69.667 68.3535H69.2048C66.0136 68.3535 63.4266 70.9405 63.4266 74.1317V76.443C63.4266 80.9108 59.8048 84.5326 55.3371 84.5326H53.9541C49.9969 84.5326 46.7891 87.7404 46.7891 91.6976C46.7891 95.6547 49.9947 98.8626 53.9519 98.8626Z" stroke="#A74127" stroke-width="2"/>
<path d="M79.3738 91.4334C79.7644 91.824 80.3975 91.824 80.788 91.4334C81.1786 91.0429 81.1786 90.4097 80.788 90.0192L79.3738 91.4334ZM68.742 91.1965C69.3623 90.032 70.6195 88.695 72.3271 88.3134C73.9637 87.9475 76.3339 88.3935 79.3738 91.4334L80.788 90.0192C77.4489 86.6801 74.4162 85.7971 71.8908 86.3615C69.4364 86.9101 67.7724 88.7627 66.9768 90.2562L68.742 91.1965Z" fill="#A74127"/>
<path d="M101.257 85.6878C101.647 86.0784 102.28 86.0784 102.671 85.6878C103.061 85.2973 103.061 84.6641 102.671 84.2736L101.257 85.6878ZM90.6248 85.4509C91.2451 84.2864 92.5023 82.9494 94.2099 82.5677C95.8466 82.2019 98.2167 82.6479 101.257 85.6878L102.671 84.2736C99.3317 80.9345 96.299 80.0514 93.7736 80.6159C91.3192 81.1645 89.6552 83.0171 88.8596 84.5106L90.6248 85.4509Z" fill="#A74127"/>
<path d="M89.0301 73.9632C89.4206 74.3537 90.0538 74.3537 90.4443 73.9632C90.8348 73.5727 90.8348 72.9395 90.4443 72.549L89.0301 73.9632ZM78.3982 73.7263C79.0185 72.5618 80.2758 71.2248 81.9833 70.8431C83.62 70.4773 85.9901 70.9233 89.0301 73.9632L90.4443 72.549C87.1052 69.2099 84.0725 68.3268 81.5471 68.8913C79.0926 69.4399 77.4286 71.2925 76.633 72.786L78.3982 73.7263Z" fill="#A74127"/>
</svg>
