<?xml version="1.0" standalone="no"?>
<!DOCTYPE svg PUBLIC "-//W3C//DTD SVG 20010904//EN"
 "http://www.w3.org/TR/2001/REC-SVG-20010904/DTD/svg10.dtd">
<svg version="1.0" xmlns="http://www.w3.org/2000/svg"
 width="700.000000pt" height="700.000000pt" viewBox="0 0 700.000000 700.000000"
 preserveAspectRatio="xMidYMid meet">
<metadata>
Created by potrace 1.14, written by Peter Selinger 2001-2017
</metadata>
<g transform="translate(0.000000,700.000000) scale(0.100000,-0.100000)"
fill="#000000" stroke="none">
<path d="M922 6559 c-51 -26 -99 -81 -112 -131 -7 -23 -9 -481 -8 -1270 l3
-1235 30 -48 c22 -36 45 -57 84 -77 l53 -28 2528 0 2528 0 53 28 c39 20 62 41
84 77 l30 48 0 1257 0 1256 -28 42 c-15 23 -46 54 -69 69 l-42 28 -2545 3
-2546 2 -43 -21z"/>
<path d="M919 3202 c-39 -20 -62 -41 -84 -77 l-30 -48 -3 -1231 c-2 -948 0
-1241 10 -1276 15 -56 81 -124 135 -140 27 -8 735 -10 2574 -8 l2535 3 42 28
c23 15 54 46 69 69 l28 42 0 1256 0 1257 -30 48 c-22 36 -45 57 -84 77 l-53
28 -2528 0 -2528 0 -53 -28z"/>
</g>
</svg>
