<svg width="106" height="106" viewBox="0 0 106 106" fill="none" xmlns="http://www.w3.org/2000/svg">
<path d="M39.9538 46.8521C42.91 46.8521 43.649 48.2163 46.6052 48.2163C49.5614 48.2163 50.3005 46.8521 53.2567 46.8521C56.9519 46.8521 61.3862 50.2626 61.3862 57.0835C61.3862 63.9044 56.2129 70.0432 53.2567 70.0432C50.3005 70.0432 48.8224 68.679 46.6052 68.679C44.3881 68.679 42.91 70.0432 39.9538 70.0432C36.9976 70.0432 31.8242 63.9044 31.8242 57.0835C31.8242 50.2626 36.2585 46.8521 39.9538 46.8521Z" stroke="#A74127" stroke-width="1.96293"/>
<path d="M46.6267 44.739C48.831 45.2474 51.3954 44.6466 53.2567 42.987C55.1179 41.3273 55.7863 39.0453 55.2083 37.0866C53.0039 36.5782 50.4396 37.179 48.5783 38.8386C46.7171 40.4983 46.0487 42.7803 46.6267 44.739Z" stroke="#A74127" stroke-width="1.96293"/>
<path d="M64.2925 51.2285C66.2704 51.2285 66.7649 50.3157 68.7428 50.3157C71.2152 50.3157 74.182 52.5976 74.182 57.1612C74.182 61.7249 70.7207 65.8322 68.7428 65.8322C66.7649 65.8322 65.7759 64.9195 64.2925 64.9195M68.7428 47.7296C67.4975 48.8401 65.7817 49.242 64.3068 48.9019C63.9201 47.5913 64.3673 46.0646 65.6126 44.9541C66.8579 43.8437 68.5737 43.4417 70.0486 43.7819C70.4353 45.0924 69.9881 46.6192 68.7428 47.7296Z" stroke="#A74127" stroke-width="1.96293"/>
<circle cx="53.0018" cy="53" r="44.0203" stroke="#A74127" stroke-width="1.96293"/>
</svg>
