<svg width="106" height="106" viewBox="0 0 106 106" fill="none" xmlns="http://www.w3.org/2000/svg">
<path d="M40.9423 56.4294C36.3672 53.8148 33.2891 48.9278 33.2891 43.3305C33.2891 34.9789 40.142 28.2086 48.5954 28.2086C57.0489 28.2086 63.9018 34.9789 63.9018 43.3305C63.9018 48.9278 60.8237 53.8148 56.2486 56.4294M40.9423 56.4294V68.5338H44.1759M40.9423 56.4294H56.2486M44.1759 68.5338C45.0581 70.0405 46.7069 71.0541 48.5954 71.0541C50.484 71.0541 52.1328 70.0405 53.015 68.5338M44.1759 68.5338H53.015M53.015 68.5338H56.2486V56.4294" stroke="#A74127" stroke-width="1.96293"/>
<path d="M40.9453 62.233H56.2517M48.5985 55.9321V45.8508M48.5985 45.8508L43.4964 40.8102M48.5985 45.8508L53.7006 40.8102" stroke="#A74127" stroke-width="1.96293"/>
<mask id="mask0_941_99" style="mask-type:alpha" maskUnits="userSpaceOnUse" x="53" y="53" width="36" height="35">
<path d="M53.0273 87.0959V53.0057H63.241L79.8723 69.2128L81.6184 67.5112L66.7332 53.0057H88.01V87.0959H53.0273Z" fill="white"/>
</mask>
<g mask="url(#mask0_941_99)">
<path d="M58.2818 77.8653L75.2541 61.3259L79.4545 65.4191L62.5053 81.936H58.2818V77.8653ZM80.7202 64.1858L76.5198 60.0926L78.1694 58.4851L82.3697 62.5783L80.7202 64.1858Z" stroke="#A74127" stroke-width="1.76664"/>
</g>
<circle cx="53.0018" cy="53" r="44.0203" stroke="#A74127" stroke-width="1.96293"/>
</svg>
