<svg width="106" height="106" viewBox="0 0 106 106" fill="none" xmlns="http://www.w3.org/2000/svg">
<path d="M98.8652 53C98.8652 77.2749 78.368 97.0203 52.9995 97.0203C27.631 97.0203 7.13381 77.2749 7.13381 53C7.13381 28.7251 27.631 8.9797 52.9995 8.9797C78.368 8.9797 98.8652 28.7251 98.8652 53Z" stroke="#A74127" stroke-width="1.96293"/>
<path d="M28.4085 42.9476H27.0295C23.5506 42.9476 20.7305 45.7678 20.7305 49.2466V67.8007C20.7305 71.2796 23.5506 74.0997 27.0295 74.0997H61.98C65.2273 74.0997 67.8598 71.4673 67.8598 68.22V68.22" stroke="#A74127" stroke-width="1.96293"/>
<rect x="31.1729" y="32.8876" width="49.4329" height="32.0093" rx="5.31753" stroke="#A74127" stroke-width="1.96293"/>
<path d="M31.4492 47.7936H81.0661" stroke="#A74127" stroke-width="1.96293"/>
<path d="M21.4258 56.7035H28.1446" stroke="#A74127" stroke-width="1.96293"/>
<path d="M40.8789 47.7936L40.7264 32.7892" stroke="#A74127" stroke-width="1.96293"/>
<path d="M45.9492 47.7936L45.7967 32.7892" stroke="#A74127" stroke-width="1.96293"/>
<path d="M66.7344 47.7936L66.5818 32.7892" stroke="#A74127" stroke-width="1.96293"/>
<path d="M71.1992 47.7936L71.0467 32.7892" stroke="#A74127" stroke-width="1.96293"/>
<path d="M46.6484 32.3531C48.5525 28.0379 58.5177 21.7552 66.3199 32.3531" stroke="#A74127" stroke-width="1.96293"/>
</svg>
