<?xml version="1.0" encoding="UTF-8"?>
<svg id="Ebene_1" data-name="Ebene 1" xmlns="http://www.w3.org/2000/svg" version="1.1" viewBox="0 0 276.5 47.1">
  <defs>
    <style>
      .cls-1 {
        fill: #211f27;
        stroke-width: 0px;
      }
    </style>
  </defs>
  <rect class="cls-1" width="41.9" height="20.5" rx="1.7" ry="1.7"/>
  <path class="cls-1" d="M1.7,47h38.5c.9,0,1.7-.8,1.7-1.8v-18.4c0-1-.8-1.8-1.7-1.8H1.7c-.9,0-1.7.8-1.7,1.8v18.4c0,1,.8,1.8,1.7,1.8Z"/>
  <g>
    <path class="cls-1" d="M79,25h-24.3c-.5,0-.8.4-.8,1v19.9c0,.5-.4,1-.8,1h-4.4c-.5,0-.8-.4-.8-1V1c0-.5.4-1,.8-1h4.4c.5,0,.8.4.8,1v17.9c0,.5.4,1,.8,1h24.3c.5,0,.8-.4.8-1V1c0-.5.4-1,.8-1h4.4c.5,0,.8.4.8,1v44.9c0,.5-.4,1-.8,1h-4.4c-.5,0-.8-.4-.8-1v-19.9c0-.5-.4-1-.8-1Z"/>
    <path class="cls-1" d="M118.4,0c14.4,0,24.7,8.6,24.7,23.5s-10.3,23.4-24.7,23.4-24.7-8.6-24.7-23.5S103.9,0,118.4,0ZM118.4,42.1c10.8,0,18.5-6.4,18.5-18.6s-7.7-18.7-18.5-18.7-18.5,6.4-18.5,18.6,7.7,18.7,18.5,18.7Z"/>
    <path class="cls-1" d="M188.8,28.8c0,12-6.8,18.2-19.4,18.2s-19.3-6.2-19.3-18.2V.5c0-.3.3-.5.6-.5h4.9c.3,0,.6.2.6.5v28.3c0,8.7,4.1,13.2,13.3,13.2s13.5-4.5,13.5-13.2V.5c0-.3.3-.5.6-.5h4.6c.3,0,.6.2.6.5v28.2Z"/>
    <path class="cls-1" d="M218.3,5.5v41c0,.3-.3.5-.6.5h-4.9c-.3,0-.6-.2-.6-.5V5.5c0-.3-.3-.5-.6-.5h-15.3c-.3,0-.6-.2-.6-.5V.5c0-.3.3-.5.6-.5h38c.3,0,.6.2.6.5v3.9c0,.3-.3.5-.6.5h-15.3c-.3,0-.6.2-.6.5Z"/>
    <path class="cls-1" d="M244.6,33.6c.4,0,.7.1.8.5.8,5.6,6,8.4,13.5,8.4s11.3-2.5,11.3-7.7-7.7-7.9-14-9.6c-7-1.9-15.5-4.4-15.5-13.2s6.3-11.9,16.9-11.9,16,3.1,18.2,10.6-.1.6-.5.6c-1.1.2-3.5.8-4.7,1s-.7-.1-.8-.4c-1.5-4.7-5.3-7.2-12.2-7.2s-10.7,2.5-10.7,7.1,5.9,7.3,13.2,9.2c7.7,1.9,16.3,4.2,16.3,13.6s-6.5,12.5-17.7,12.5-17.7-2.6-19.3-11.9c0-.3.2-.5.5-.6l4.6-1Z"/>
  </g>
</svg>