<svg width="146" height="25" viewBox="0 0 146 25" fill="none" xmlns="http://www.w3.org/2000/svg">
<g clip-path="url(#clip0_1543_234)">
<path d="M21.2104 0H0.892319C0.399505 0 0 0.399505 0 0.892319V9.94935C0 10.4422 0.399505 10.8417 0.892319 10.8417H21.2104C21.7032 10.8417 22.1027 10.4422 22.1027 9.94935V0.892319C22.1027 0.399505 21.7032 0 21.2104 0Z" fill="#323137"/>
<path d="M0.892319 24.825H21.2015C21.6923 24.825 22.0938 24.3967 22.0938 23.8613V14.1707C22.0938 13.6443 21.6923 13.207 21.2015 13.207H0.892319C0.401543 13.207 0 13.6353 0 14.1707V23.8613C0 24.3878 0.401543 24.825 0.892319 24.825Z" fill="#323137"/>
<path d="M41.689 13.1885H28.8396C28.5987 13.1885 28.4024 13.4205 28.4024 13.706V24.2265C28.4024 24.512 28.2061 24.744 27.9651 24.744H25.654C25.4131 24.744 25.2168 24.512 25.2168 24.2265V0.517545C25.2168 0.232003 25.4131 0 25.654 0H27.9651C28.2061 0 28.4024 0.232003 28.4024 0.517545V9.94935C28.4024 10.2349 28.5987 10.4669 28.8396 10.4669H41.689C41.9299 10.4669 42.1262 10.2349 42.1262 9.94935V0.517545C42.1262 0.232003 42.3225 0 42.5635 0H44.8746C45.1155 0 45.3118 0.232003 45.3118 0.517545V24.2354C45.3118 24.5209 45.1155 24.7529 44.8746 24.7529H42.5635C42.3225 24.7529 42.1262 24.5209 42.1262 24.2354V13.7149C42.1262 13.4294 41.9299 13.1974 41.689 13.1974V13.1885Z" fill="#323137"/>
<path d="M62.486 0C70.0886 0 75.5228 4.51513 75.5228 12.4122C75.5228 20.3092 70.0886 24.7886 62.486 24.7886C54.8834 24.7886 49.4492 20.2735 49.4492 12.3765C49.4492 4.47944 54.8388 0 62.486 0ZM62.486 22.2187C68.1701 22.2187 72.2569 18.8368 72.2569 12.4122C72.2569 5.98746 68.1701 2.56988 62.486 2.56988C56.8019 2.56988 52.7151 5.95177 52.7151 12.3765C52.7151 18.8012 56.7662 22.2187 62.486 22.2187Z" fill="#323137"/>
<path d="M99.652 15.1783C99.652 21.5138 96.0649 24.7886 89.4082 24.7886C82.7515 24.7886 79.209 21.5138 79.209 15.1783V0.285542C79.209 0.124925 79.3607 0 79.5391 0H82.1001C82.2875 0 82.4303 0.124925 82.4303 0.285542V15.214C82.4303 19.8095 84.5897 22.1741 89.4528 22.1741C94.3159 22.1741 96.5557 19.8095 96.5557 15.214V0.285542C96.5557 0.124925 96.7074 0 96.8858 0H99.3218C99.5092 0 99.652 0.124925 99.652 0.285542V15.1783Z" fill="#323137"/>
<path d="M115.229 2.91788V24.5745C115.229 24.7351 115.077 24.86 114.898 24.86H112.329C112.141 24.86 111.998 24.7262 111.998 24.5745V2.91788C111.998 2.75726 111.847 2.63234 111.668 2.63234H103.602C103.414 2.63234 103.271 2.49849 103.271 2.3468V0.285542C103.271 0.124925 103.423 0 103.602 0H123.634C123.822 0 123.964 0.133848 123.964 0.285542V2.33787C123.964 2.49849 123.813 2.62342 123.634 2.62342H115.568C115.38 2.62342 115.237 2.75726 115.237 2.90896L115.229 2.91788Z" fill="#323137"/>
<path d="M129.085 17.7495C129.282 17.7049 129.478 17.8209 129.505 17.9905C129.951 20.9262 132.664 22.3985 136.652 22.3985C140.409 22.3985 142.64 21.0601 142.64 18.3206C142.64 14.6175 138.597 14.1714 135.251 13.2433C131.575 12.2529 127.078 10.9501 127.078 6.28325C127.078 2.30351 130.379 0.0102539 135.992 0.0102539C140.757 0.0102539 144.46 1.65212 145.584 5.60509C145.629 5.74786 145.522 5.89956 145.343 5.94417C144.754 6.07802 143.487 6.35464 142.89 6.48849C142.711 6.5331 142.524 6.43495 142.479 6.28325C141.712 3.82045 139.695 2.48198 136.036 2.48198C132.378 2.48198 130.379 3.82045 130.379 6.22079C130.379 9.23683 133.52 10.0578 137.357 11.0572C141.399 12.0476 145.941 13.288 145.941 18.2582C145.941 22.6484 142.515 24.8792 136.608 24.8792C131.976 24.8792 127.274 23.4872 126.408 18.6151C126.382 18.4723 126.489 18.3385 126.658 18.3028L129.085 17.7674V17.7495Z" fill="#323137"/>
</g>
<defs>
<clipPath id="clip0_1543_234">
<rect width="145.93" height="24.86" fill="white"/>
</clipPath>
</defs>
</svg>
