<svg width="53" height="52" viewBox="0 0 53 52" fill="none" xmlns="http://www.w3.org/2000/svg">
<circle cx="26.5039" cy="26" r="22.4258" stroke="#A74127"/>
<path d="M22.6052 29.4628C20.2725 28.1308 18.7031 25.6412 18.7031 22.7897C18.7031 18.535 22.1972 15.0859 26.5073 15.0859C30.8174 15.0859 34.3114 18.535 34.3114 22.7897C34.3114 25.6412 32.742 28.1308 30.4094 29.4628M22.6052 29.4628V35.6293H24.2539M22.6052 29.4628H30.4094M24.2539 35.6293C24.7037 36.3969 25.5444 36.9133 26.5073 36.9133C27.4702 36.9133 28.3109 36.3969 28.7606 35.6293M24.2539 35.6293H28.7606M28.7606 35.6293H30.4094V29.4628" stroke="#A74127"/>
<path d="M23.0703 33.4199H27.7266" stroke="#A74127"/>
<circle cx="26.5078" cy="22.5586" r="5.02344" stroke="#A74127"/>
<circle cx="26.5039" cy="22.5586" r="2.50391" fill="#A74127" stroke="#A74127"/>
</svg>
