<svg width="52" height="52" viewBox="0 0 52 52" fill="none" xmlns="http://www.w3.org/2000/svg">
<circle cx="26.0022" cy="26.0002" r="23.2834" fill="#000"/>
<path d="M30.2068 21.5119V24.608H21.0347V21.5119H30.2068ZM23.1342 36.373V20.438C23.1342 19.3608 23.3439 18.4675 23.7631 17.758C24.1888 17.0485 24.7693 16.5163 25.5047 16.1616C26.24 15.8068 27.0753 15.6294 28.0105 15.6294C28.6427 15.6294 29.2199 15.6778 29.7424 15.7746C30.2713 15.8713 30.6648 15.9584 30.9228 16.0358L30.1875 19.1318C30.0262 19.0802 29.8263 19.0319 29.5876 18.9867C29.3554 18.9416 29.1167 18.919 28.8716 18.919C28.2653 18.919 27.8428 19.0609 27.6042 19.3447C27.3655 19.6221 27.2462 20.0123 27.2462 20.5154V36.373H23.1342Z" fill="white"/>
</svg>
