<svg width="52" height="52" viewBox="0 0 52 52" fill="none" xmlns="http://www.w3.org/2000/svg">
<circle cx="26.0022" cy="26.0002" r="23.2834" fill="#000"/>
<path d="M17.5588 35.2754V20.4143H21.6805V35.2754H17.5588ZM19.6293 18.4986C19.0166 18.4986 18.4909 18.2954 18.0523 17.8891C17.6201 17.4763 17.404 16.9828 17.404 16.4088C17.404 15.8411 17.6201 15.3542 18.0523 14.9478C18.4909 14.535 19.0166 14.3286 19.6293 14.3286C20.2421 14.3286 20.7646 14.535 21.1967 14.9478C21.6353 15.3542 21.8546 15.8411 21.8546 16.4088C21.8546 16.9828 21.6353 17.4763 21.1967 17.8891C20.7646 18.2954 20.2421 18.4986 19.6293 18.4986ZM29.1038 26.6838V35.2754H24.9821V20.4143H28.9103V23.0363H29.0844C29.4134 22.1719 29.9649 21.4882 30.7389 20.9851C31.5129 20.4756 32.4514 20.2208 33.5544 20.2208C34.5864 20.2208 35.4862 20.4465 36.2537 20.898C37.0213 21.3496 37.6179 21.9946 38.0437 22.8331C38.4694 23.6652 38.6822 24.6585 38.6822 25.813V35.2754H34.5606V26.5484C34.567 25.6389 34.3348 24.9294 33.864 24.4198C33.3931 23.9038 32.7449 23.6458 31.9193 23.6458C31.3645 23.6458 30.8743 23.7651 30.4486 24.0038C30.0294 24.2424 29.7004 24.5907 29.4618 25.0487C29.2296 25.5002 29.1102 26.0453 29.1038 26.6838Z" fill="white"/>
</svg>
